<svg xmlns="http://www.w3.org/2000/svg" width="48.715" height="48.715" viewBox="0 0 48.715 48.715">
  <g id="Areas_of_Focus-Icon" data-name="Areas of Focus-Icon" transform="translate(1.366 1.367)">
    <g id="Group_43" data-name="Group 43">
      <path id="Path_209" data-name="Path 209" d="M686.977,100.18l6.6-3.813A78.883,78.883,0,0,0,664.844,67.63l-3.813,6.6A71.222,71.222,0,0,1,686.977,100.18Z" transform="translate(-647.599 -67.63)" fill="#888" stroke="#fff" stroke-miterlimit="10" stroke-width="2"/>
      <path id="Path_210" data-name="Path 210" d="M651.473,137.147l9.457-5.46a71.222,71.222,0,0,0-25.946-25.946l-5.46,9.457A60.249,60.249,0,0,1,651.473,137.147Z" transform="translate(-621.551 -99.137)" fill="#888" stroke="#fff" stroke-miterlimit="10" stroke-width="2"/>
      <path id="Path_211" data-name="Path 211" d="M591.49,160.314l-7.973,13.809a44.23,44.23,0,0,1,16.113,16.113l13.809-7.972A60.248,60.248,0,0,0,591.49,160.314Z" transform="translate(-583.517 -144.253)" fill="#888" stroke="#fff" stroke-miterlimit="10" stroke-width="2"/>
    </g>
  </g>
</svg>
